<svg xmlns="http://www.w3.org/2000/svg" version="1.1" xmlns:xlink="http://www.w3.org/1999/xlink" xmlns:svgjs="http://svgjs.dev/svgjs" width="1440" height="560" preserveAspectRatio="none" viewBox="0 0 1440 560"><g mask="url(&quot;#SvgjsMask1024&quot;)" fill="none"><rect width="1440" height="560" x="0" y="0" fill="rgba(0, 0, 0, 0.93)"></rect><path d="M1010.679,616.636C1069.519,617.975,1132.4,601.566,1161.522,550.421C1190.424,499.662,1173.174,436.819,1140.718,388.255C1111.987,345.265,1062.376,323.689,1010.679,324.717C960.888,325.707,916.031,351.235,889.297,393.252C860.215,438.96,845.41,496.215,871.276,543.817C898.104,593.189,954.504,615.358,1010.679,616.636" fill="rgba(248, 248, 250, 0.4)" class="triangle-float3"></path><path d="M501.733,682.567C544.738,680.784,584.948,663.208,608.841,627.406C635.938,586.802,650.441,535.965,628.756,492.231C604.86,444.039,555.524,411.273,501.733,411.395C448.13,411.516,401.472,445.801,375.702,492.803C350.935,537.974,349.549,594.063,378.05,636.976C404.105,676.206,454.679,684.518,501.733,682.567" fill="rgba(248, 248, 250, 0.4)" class="triangle-float2"></path><path d="M1231.478,76.51C1259.109,76.73,1282.015,57.637,1295.939,33.769C1309.989,9.685,1316.154,-20.144,1301.812,-44.056C1287.786,-67.441,1258.746,-73.971,1231.478,-73.705C1204.781,-73.444,1177.034,-65.708,1163.484,-42.704C1149.768,-19.418,1155.382,9.28,1168.771,32.755C1182.305,56.485,1204.161,76.292,1231.478,76.51" fill="rgba(248, 248, 250, 0.4)" class="triangle-float1"></path><path d="M952.941,396.497C982.656,396.677,1006.211,373.496,1019.862,347.101C1032.359,322.938,1031.485,294.528,1017.855,270.986C1004.255,247.496,980.08,231.016,952.941,231.509C926.547,231.988,905.074,250.347,891.986,273.272C879.026,295.974,875.82,322.867,887.41,346.298C900.486,372.733,923.45,396.318,952.941,396.497" fill="rgba(248, 248, 250, 0.4)" class="triangle-float3"></path><path d="M1124.793,546.736C1175.209,545.424,1219.228,515.01,1243.957,471.056C1268.187,427.989,1268.814,376.148,1245.186,332.748C1220.439,287.292,1176.54,253.138,1124.793,252.175C1071.502,251.183,1023.077,281.986,996.382,328.119C969.641,374.332,967.339,431.513,994.381,477.551C1021.093,523.028,1072.069,548.108,1124.793,546.736" fill="rgba(248, 248, 250, 0.4)" class="triangle-float3"></path></g><defs><mask id="SvgjsMask1024"><rect width="1440" height="560" fill="#ffffff"></rect></mask><style>
                @keyframes float1 {
                    0%{transform: translate(0, 0)}
                    50%{transform: translate(-10px, 0)}
                    100%{transform: translate(0, 0)}
                }

                .triangle-float1 {
                    animation: float1 5s infinite;
                }

                @keyframes float2 {
                    0%{transform: translate(0, 0)}
                    50%{transform: translate(-5px, -5px)}
                    100%{transform: translate(0, 0)}
                }

                .triangle-float2 {
                    animation: float2 4s infinite;
                }

                @keyframes float3 {
                    0%{transform: translate(0, 0)}
                    50%{transform: translate(0, -10px)}
                    100%{transform: translate(0, 0)}
                }

                .triangle-float3 {
                    animation: float3 6s infinite;
                }
            </style></defs></svg>