<svg id="visual" viewBox="0 0 900 600" width="900" height="600" xmlns="http://www.w3.org/2000/svg" xmlns:xlink="http://www.w3.org/1999/xlink" version="1.1"><g stroke-width="1" stroke-linejoin="bevel"><path d="M415 302L381 268L380 362Z" fill="#e2e4e6" stroke="#e2e4e6"></path><path d="M380 362L459 389L415 302Z" fill="#ffffff" stroke="#ffffff"></path><path d="M381 268L300 304L380 362Z" fill="#2f3948" stroke="#2f3948"></path><path d="M380 362L301 387L383 371Z" fill="#ffffff" stroke="#ffffff"></path><path d="M327 266L300 304L381 268Z" fill="#2f3948" stroke="#2f3948"></path><path d="M252 352L275 334L193 307Z" fill="#464f5d" stroke="#464f5d"></path><path d="M300 304L301 387L380 362Z" fill="#91969f" stroke="#91969f"></path><path d="M275 334L301 387L300 304Z" fill="#5e6572" stroke="#5e6572"></path><path d="M437 202L391 210L381 268Z" fill="#464f5d" stroke="#464f5d"></path><path d="M381 268L391 210L327 266Z" fill="#91969f" stroke="#91969f"></path><path d="M417 452L459 389L383 371Z" fill="#2f3948" stroke="#2f3948"></path><path d="M383 371L459 389L380 362Z" fill="#5e6572" stroke="#5e6572"></path><path d="M415 302L437 202L381 268Z" fill="#ffffff" stroke="#ffffff"></path><path d="M486 371L488 297L415 302Z" fill="#2f3948" stroke="#2f3948"></path><path d="M193 307L275 334L300 304Z" fill="#ffffff" stroke="#ffffff"></path><path d="M275 334L252 352L301 387Z" fill="#c7c9ce" stroke="#c7c9ce"></path><path d="M391 210L314 203L327 266Z" fill="#464f5d" stroke="#464f5d"></path><path d="M327 266L271 215L300 304Z" fill="#e2e4e6" stroke="#e2e4e6"></path><path d="M437 202L385 191L391 210Z" fill="#464f5d" stroke="#464f5d"></path><path d="M391 210L385 191L314 203Z" fill="#ffffff" stroke="#ffffff"></path><path d="M315 447L342 439L301 387Z" fill="#abafb6" stroke="#abafb6"></path><path d="M301 387L342 439L383 371Z" fill="#777d88" stroke="#777d88"></path><path d="M459 389L486 371L415 302Z" fill="#abafb6" stroke="#abafb6"></path><path d="M488 297L437 202L415 302Z" fill="#91969f" stroke="#91969f"></path><path d="M314 203L271 215L327 266Z" fill="#464f5d" stroke="#464f5d"></path><path d="M237 420L315 447L301 387Z" fill="#777d88" stroke="#777d88"></path><path d="M362 467L417 452L342 439Z" fill="#e2e4e6" stroke="#e2e4e6"></path><path d="M342 439L417 452L383 371Z" fill="#5e6572" stroke="#5e6572"></path><path d="M459 389L472 477L486 371Z" fill="#abafb6" stroke="#abafb6"></path><path d="M271 145L285 192L314 203Z" fill="#777d88" stroke="#777d88"></path><path d="M314 203L285 192L271 215Z" fill="#2f3948" stroke="#2f3948"></path><path d="M315 447L362 467L342 439Z" fill="#91969f" stroke="#91969f"></path><path d="M472 477L445 450L417 452Z" fill="#e2e4e6" stroke="#e2e4e6"></path><path d="M417 452L445 450L459 389Z" fill="#182535" stroke="#182535"></path><path d="M538 353L528 296L488 297Z" fill="#001122" stroke="#001122"></path><path d="M488 297L497 208L437 202Z" fill="#91969f" stroke="#91969f"></path><path d="M538 353L488 297L486 371Z" fill="#c7c9ce" stroke="#c7c9ce"></path><path d="M528 296L497 208L488 297Z" fill="#91969f" stroke="#91969f"></path><path d="M437 202L458 142L385 191Z" fill="#2f3948" stroke="#2f3948"></path><path d="M155 355L237 420L252 352Z" fill="#abafb6" stroke="#abafb6"></path><path d="M252 352L237 420L301 387Z" fill="#c7c9ce" stroke="#c7c9ce"></path><path d="M280 512L393 525L362 467Z" fill="#ffffff" stroke="#ffffff"></path><path d="M559 382L538 353L486 371Z" fill="#2f3948" stroke="#2f3948"></path><path d="M285 192L240 197L271 215Z" fill="#ffffff" stroke="#ffffff"></path><path d="M271 215L193 307L300 304Z" fill="#ffffff" stroke="#ffffff"></path><path d="M186 213L193 307L271 215Z" fill="#5e6572" stroke="#5e6572"></path><path d="M616 311L554 268L528 296Z" fill="#2f3948" stroke="#2f3948"></path><path d="M528 296L554 268L497 208Z" fill="#abafb6" stroke="#abafb6"></path><path d="M393 525L472 477L417 452Z" fill="#182535" stroke="#182535"></path><path d="M445 450L472 477L459 389Z" fill="#5e6572" stroke="#5e6572"></path><path d="M445 97L458 142L478 108Z" fill="#001122" stroke="#001122"></path><path d="M497 208L458 142L437 202Z" fill="#e2e4e6" stroke="#e2e4e6"></path><path d="M352 89L271 145L314 203Z" fill="#ffffff" stroke="#ffffff"></path><path d="M285 192L271 145L240 197Z" fill="#e2e4e6" stroke="#e2e4e6"></path><path d="M352 89L314 203L385 191Z" fill="#777d88" stroke="#777d88"></path><path d="M172 424L211 442L237 420Z" fill="#464f5d" stroke="#464f5d"></path><path d="M247 496L280 512L315 447Z" fill="#ffffff" stroke="#ffffff"></path><path d="M546 472L559 382L486 371Z" fill="#abafb6" stroke="#abafb6"></path><path d="M538 353L616 311L528 296Z" fill="#e2e4e6" stroke="#e2e4e6"></path><path d="M156 151L186 213L240 197Z" fill="#182535" stroke="#182535"></path><path d="M240 197L186 213L271 215Z" fill="#182535" stroke="#182535"></path><path d="M280 512L362 467L315 447Z" fill="#777d88" stroke="#777d88"></path><path d="M362 467L393 525L417 452Z" fill="#abafb6" stroke="#abafb6"></path><path d="M635 448L577 366L559 382Z" fill="#464f5d" stroke="#464f5d"></path><path d="M559 382L577 366L538 353Z" fill="#91969f" stroke="#91969f"></path><path d="M247 496L315 447L237 420Z" fill="#e2e4e6" stroke="#e2e4e6"></path><path d="M146 324L155 355L193 307Z" fill="#001122" stroke="#001122"></path><path d="M193 307L155 355L252 352Z" fill="#91969f" stroke="#91969f"></path><path d="M211 442L247 496L237 420Z" fill="#2f3948" stroke="#2f3948"></path><path d="M134 239L146 324L193 307Z" fill="#5e6572" stroke="#5e6572"></path><path d="M155 355L172 424L237 420Z" fill="#464f5d" stroke="#464f5d"></path><path d="M211 442L171 521L247 496Z" fill="#ffffff" stroke="#ffffff"></path><path d="M143 404L172 424L155 355Z" fill="#c7c9ce" stroke="#c7c9ce"></path><path d="M368 86L352 89L385 191Z" fill="#abafb6" stroke="#abafb6"></path><path d="M458 142L368 86L385 191Z" fill="#182535" stroke="#182535"></path><path d="M478 108L458 142L537 102Z" fill="#2f3948" stroke="#2f3948"></path><path d="M458 142L445 97L368 86Z" fill="#464f5d" stroke="#464f5d"></path><path d="M537 102L458 142L497 208Z" fill="#c7c9ce" stroke="#c7c9ce"></path><path d="M488 577L546 472L472 477Z" fill="#ffffff" stroke="#ffffff"></path><path d="M472 477L546 472L486 371Z" fill="#001122" stroke="#001122"></path><path d="M66 385L143 404L155 355Z" fill="#91969f" stroke="#91969f"></path><path d="M271 600L289 573L201 570Z" fill="#182535" stroke="#182535"></path><path d="M498 54L436 81L445 97Z" fill="#abafb6" stroke="#abafb6"></path><path d="M445 97L436 81L368 86Z" fill="#2f3948" stroke="#2f3948"></path><path d="M146 203L134 239L186 213Z" fill="#464f5d" stroke="#464f5d"></path><path d="M186 213L134 239L193 307Z" fill="#91969f" stroke="#91969f"></path><path d="M146 324L63 370L155 355Z" fill="#777d88" stroke="#777d88"></path><path d="M146 203L186 213L156 151Z" fill="#c7c9ce" stroke="#c7c9ce"></path><path d="M577 366L616 311L538 353Z" fill="#464f5d" stroke="#464f5d"></path><path d="M554 268L597 216L497 208Z" fill="#777d88" stroke="#777d88"></path><path d="M637 330L616 311L577 366Z" fill="#182535" stroke="#182535"></path><path d="M156 151L240 197L184 98Z" fill="#2f3948" stroke="#2f3948"></path><path d="M616 311L597 216L554 268Z" fill="#001122" stroke="#001122"></path><path d="M597 216L576 174L497 208Z" fill="#001122" stroke="#001122"></path><path d="M280 512L376 573L393 525Z" fill="#001122" stroke="#001122"></path><path d="M393 525L488 577L472 477Z" fill="#e2e4e6" stroke="#e2e4e6"></path><path d="M289 573L376 573L280 512Z" fill="#ffffff" stroke="#ffffff"></path><path d="M68 290L103 281L45 221Z" fill="#abafb6" stroke="#abafb6"></path><path d="M134 239L103 281L146 324Z" fill="#e2e4e6" stroke="#e2e4e6"></path><path d="M184 98L240 197L271 145Z" fill="#2f3948" stroke="#2f3948"></path><path d="M45 221L103 281L134 239Z" fill="#e2e4e6" stroke="#e2e4e6"></path><path d="M635 448L637 330L577 366Z" fill="#464f5d" stroke="#464f5d"></path><path d="M641 226L628 214L597 216Z" fill="#91969f" stroke="#91969f"></path><path d="M171 521L211 442L172 424Z" fill="#e2e4e6" stroke="#e2e4e6"></path><path d="M201 570L289 573L280 512Z" fill="#abafb6" stroke="#abafb6"></path><path d="M576 174L537 102L497 208Z" fill="#464f5d" stroke="#464f5d"></path><path d="M478 108L498 54L445 97Z" fill="#ffffff" stroke="#ffffff"></path><path d="M210 86L218 88L208 51Z" fill="#ffffff" stroke="#ffffff"></path><path d="M325 31L218 88L271 145Z" fill="#182535" stroke="#182535"></path><path d="M271 145L352 89L325 31Z" fill="#2f3948" stroke="#2f3948"></path><path d="M325 31L352 89L368 86Z" fill="#abafb6" stroke="#abafb6"></path><path d="M218 88L184 98L271 145Z" fill="#777d88" stroke="#777d88"></path><path d="M641 226L597 216L616 311Z" fill="#777d88" stroke="#777d88"></path><path d="M597 216L636 183L576 174Z" fill="#182535" stroke="#182535"></path><path d="M576 174L609 85L537 102Z" fill="#c7c9ce" stroke="#c7c9ce"></path><path d="M210 86L184 98L218 88Z" fill="#abafb6" stroke="#abafb6"></path><path d="M104 469L172 424L143 404Z" fill="#182535" stroke="#182535"></path><path d="M104 469L171 521L172 424Z" fill="#abafb6" stroke="#abafb6"></path><path d="M292 600L396 600L376 573Z" fill="#c7c9ce" stroke="#c7c9ce"></path><path d="M376 573L399 600L393 525Z" fill="#5e6572" stroke="#5e6572"></path><path d="M396 600L399 600L376 573Z" fill="#5e6572" stroke="#5e6572"></path><path d="M676 324L641 226L616 311Z" fill="#777d88" stroke="#777d88"></path><path d="M628 214L636 183L597 216Z" fill="#5e6572" stroke="#5e6572"></path><path d="M338 0L368 86L447 0Z" fill="#464f5d" stroke="#464f5d"></path><path d="M338 0L325 31L368 86Z" fill="#c7c9ce" stroke="#c7c9ce"></path><path d="M210 86L208 51L184 98Z" fill="#2f3948" stroke="#2f3948"></path><path d="M399 600L488 577L393 525Z" fill="#c7c9ce" stroke="#c7c9ce"></path><path d="M546 472L635 448L559 382Z" fill="#ffffff" stroke="#ffffff"></path><path d="M576 41L498 54L537 102Z" fill="#e2e4e6" stroke="#e2e4e6"></path><path d="M537 102L498 54L478 108Z" fill="#e2e4e6" stroke="#e2e4e6"></path><path d="M271 600L292 600L289 573Z" fill="#e2e4e6" stroke="#e2e4e6"></path><path d="M289 573L292 600L376 573Z" fill="#777d88" stroke="#777d88"></path><path d="M631 473L635 448L546 472Z" fill="#ffffff" stroke="#ffffff"></path><path d="M637 330L676 324L616 311Z" fill="#777d88" stroke="#777d88"></path><path d="M641 226L636 183L628 214Z" fill="#777d88" stroke="#777d88"></path><path d="M97 171L134 239L146 203Z" fill="#abafb6" stroke="#abafb6"></path><path d="M103 281L68 290L146 324Z" fill="#2f3948" stroke="#2f3948"></path><path d="M97 171L146 203L156 151Z" fill="#ffffff" stroke="#ffffff"></path><path d="M201 570L280 512L247 496Z" fill="#e2e4e6" stroke="#e2e4e6"></path><path d="M488 577L577 536L546 472Z" fill="#2f3948" stroke="#2f3948"></path><path d="M171 521L201 570L247 496Z" fill="#c7c9ce" stroke="#c7c9ce"></path><path d="M66 385L104 469L143 404Z" fill="#abafb6" stroke="#abafb6"></path><path d="M123 578L209 600L201 570Z" fill="#2f3948" stroke="#2f3948"></path><path d="M577 536L631 473L546 472Z" fill="#c7c9ce" stroke="#c7c9ce"></path><path d="M88 85L97 171L156 151Z" fill="#2f3948" stroke="#2f3948"></path><path d="M708 335L676 324L694 439Z" fill="#c7c9ce" stroke="#c7c9ce"></path><path d="M694 439L676 324L637 330Z" fill="#c7c9ce" stroke="#c7c9ce"></path><path d="M641 226L674 151L636 183Z" fill="#5e6572" stroke="#5e6572"></path><path d="M244 0L208 51L218 88Z" fill="#5e6572" stroke="#5e6572"></path><path d="M184 98L88 85L156 151Z" fill="#91969f" stroke="#91969f"></path><path d="M68 290L63 370L146 324Z" fill="#001122" stroke="#001122"></path><path d="M63 370L66 385L155 355Z" fill="#182535" stroke="#182535"></path><path d="M399 600L499 600L488 577Z" fill="#5e6572" stroke="#5e6572"></path><path d="M488 577L568 600L577 536Z" fill="#abafb6" stroke="#abafb6"></path><path d="M577 536L637 481L631 473Z" fill="#91969f" stroke="#91969f"></path><path d="M631 473L637 481L635 448Z" fill="#464f5d" stroke="#464f5d"></path><path d="M447 0L368 86L436 81Z" fill="#182535" stroke="#182535"></path><path d="M325 31L244 0L218 88Z" fill="#777d88" stroke="#777d88"></path><path d="M338 0L316 0L325 31Z" fill="#2f3948" stroke="#2f3948"></path><path d="M495 0L447 0L498 54Z" fill="#182535" stroke="#182535"></path><path d="M498 54L447 0L436 81Z" fill="#c7c9ce" stroke="#c7c9ce"></path><path d="M123 578L201 570L171 521Z" fill="#464f5d" stroke="#464f5d"></path><path d="M201 570L209 600L271 600Z" fill="#91969f" stroke="#91969f"></path><path d="M625 83L609 85L636 183Z" fill="#182535" stroke="#182535"></path><path d="M636 183L609 85L576 174Z" fill="#5e6572" stroke="#5e6572"></path><path d="M625 547L643 503L577 536Z" fill="#182535" stroke="#182535"></path><path d="M577 536L643 503L637 481Z" fill="#777d88" stroke="#777d88"></path><path d="M637 481L694 439L635 448Z" fill="#abafb6" stroke="#abafb6"></path><path d="M97 171L45 221L134 239Z" fill="#91969f" stroke="#91969f"></path><path d="M68 290L0 321L63 370Z" fill="#001122" stroke="#001122"></path><path d="M0 205L45 221L97 171Z" fill="#182535" stroke="#182535"></path><path d="M609 85L597 68L537 102Z" fill="#e2e4e6" stroke="#e2e4e6"></path><path d="M316 0L244 0L325 31Z" fill="#5e6572" stroke="#5e6572"></path><path d="M117 50L88 85L184 98Z" fill="#001122" stroke="#001122"></path><path d="M576 41L495 0L498 54Z" fill="#e2e4e6" stroke="#e2e4e6"></path><path d="M694 439L637 330L635 448Z" fill="#182535" stroke="#182535"></path><path d="M676 324L742 231L641 226Z" fill="#182535" stroke="#182535"></path><path d="M597 68L576 41L537 102Z" fill="#ffffff" stroke="#ffffff"></path><path d="M66 385L63 477L104 469Z" fill="#91969f" stroke="#91969f"></path><path d="M79 555L123 578L171 521Z" fill="#464f5d" stroke="#464f5d"></path><path d="M0 408L63 477L66 385Z" fill="#abafb6" stroke="#abafb6"></path><path d="M0 408L66 385L63 370Z" fill="#abafb6" stroke="#abafb6"></path><path d="M609 85L625 83L597 68Z" fill="#001122" stroke="#001122"></path><path d="M611 0L576 0L576 41Z" fill="#777d88" stroke="#777d88"></path><path d="M674 151L625 83L636 183Z" fill="#91969f" stroke="#91969f"></path><path d="M600 600L625 547L577 536Z" fill="#e2e4e6" stroke="#e2e4e6"></path><path d="M742 231L674 151L641 226Z" fill="#2f3948" stroke="#2f3948"></path><path d="M499 600L568 600L488 577Z" fill="#777d88" stroke="#777d88"></path><path d="M643 503L694 439L637 481Z" fill="#91969f" stroke="#91969f"></path><path d="M742 416L694 439L740 428Z" fill="#001122" stroke="#001122"></path><path d="M79 555L171 521L104 469Z" fill="#ffffff" stroke="#ffffff"></path><path d="M87 84L88 85L117 50Z" fill="#182535" stroke="#182535"></path><path d="M117 50L184 98L208 51Z" fill="#001122" stroke="#001122"></path><path d="M88 85L0 95L97 171Z" fill="#e2e4e6" stroke="#e2e4e6"></path><path d="M244 0L184 0L208 51Z" fill="#ffffff" stroke="#ffffff"></path><path d="M184 0L117 50L208 51Z" fill="#5e6572" stroke="#5e6572"></path><path d="M568 600L600 600L577 536Z" fill="#464f5d" stroke="#464f5d"></path><path d="M740 428L694 439L745 476Z" fill="#464f5d" stroke="#464f5d"></path><path d="M0 262L68 290L45 221Z" fill="#5e6572" stroke="#5e6572"></path><path d="M0 262L0 321L68 290Z" fill="#abafb6" stroke="#abafb6"></path><path d="M0 321L0 338L63 370Z" fill="#c7c9ce" stroke="#c7c9ce"></path><path d="M742 416L733 384L694 439Z" fill="#182535" stroke="#182535"></path><path d="M694 439L733 384L708 335Z" fill="#2f3948" stroke="#2f3948"></path><path d="M708 335L742 231L676 324Z" fill="#2f3948" stroke="#2f3948"></path><path d="M0 205L0 262L45 221Z" fill="#abafb6" stroke="#abafb6"></path><path d="M0 481L79 555L63 477Z" fill="#464f5d" stroke="#464f5d"></path><path d="M63 477L79 555L104 469Z" fill="#2f3948" stroke="#2f3948"></path><path d="M576 41L576 0L495 0Z" fill="#182535" stroke="#182535"></path><path d="M611 0L576 41L597 68Z" fill="#001122" stroke="#001122"></path><path d="M611 0L597 68L625 83Z" fill="#ffffff" stroke="#ffffff"></path><path d="M79 555L119 600L123 578Z" fill="#abafb6" stroke="#abafb6"></path><path d="M123 578L119 600L209 600Z" fill="#001122" stroke="#001122"></path><path d="M0 338L0 408L63 370Z" fill="#5e6572" stroke="#5e6572"></path><path d="M775 273L742 231L708 335Z" fill="#777d88" stroke="#777d88"></path><path d="M673 0L611 0L625 83Z" fill="#5e6572" stroke="#5e6572"></path><path d="M0 95L0 205L97 171Z" fill="#777d88" stroke="#777d88"></path><path d="M694 439L643 503L701 531Z" fill="#e2e4e6" stroke="#e2e4e6"></path><path d="M733 384L763 382L708 335Z" fill="#c7c9ce" stroke="#c7c9ce"></path><path d="M701 531L643 503L625 547Z" fill="#91969f" stroke="#91969f"></path><path d="M600 600L634 600L625 547Z" fill="#c7c9ce" stroke="#c7c9ce"></path><path d="M184 0L132 0L117 50Z" fill="#777d88" stroke="#777d88"></path><path d="M117 50L85 36L87 84Z" fill="#2f3948" stroke="#2f3948"></path><path d="M87 84L0 95L88 85Z" fill="#91969f" stroke="#91969f"></path><path d="M634 600L701 531L625 547Z" fill="#464f5d" stroke="#464f5d"></path><path d="M132 0L85 36L117 50Z" fill="#91969f" stroke="#91969f"></path><path d="M729 93L625 83L674 151Z" fill="#c7c9ce" stroke="#c7c9ce"></path><path d="M742 231L740 169L674 151Z" fill="#ffffff" stroke="#ffffff"></path><path d="M783 446L742 416L740 428Z" fill="#464f5d" stroke="#464f5d"></path><path d="M783 446L763 382L742 416Z" fill="#777d88" stroke="#777d88"></path><path d="M742 416L763 382L733 384Z" fill="#777d88" stroke="#777d88"></path><path d="M742 231L755 196L740 169Z" fill="#c7c9ce" stroke="#c7c9ce"></path><path d="M0 408L0 481L63 477Z" fill="#abafb6" stroke="#abafb6"></path><path d="M79 555L29 600L119 600Z" fill="#abafb6" stroke="#abafb6"></path><path d="M808 224L755 196L742 231Z" fill="#777d88" stroke="#777d88"></path><path d="M763 382L775 273L708 335Z" fill="#464f5d" stroke="#464f5d"></path><path d="M701 531L745 476L694 439Z" fill="#5e6572" stroke="#5e6572"></path><path d="M820 282L787 268L775 273Z" fill="#91969f" stroke="#91969f"></path><path d="M775 273L787 268L742 231Z" fill="#2f3948" stroke="#2f3948"></path><path d="M820 282L775 273L763 382Z" fill="#464f5d" stroke="#464f5d"></path><path d="M740 169L729 93L674 151Z" fill="#2f3948" stroke="#2f3948"></path><path d="M765 143L729 93L740 169Z" fill="#182535" stroke="#182535"></path><path d="M765 143L740 169L755 196Z" fill="#2f3948" stroke="#2f3948"></path><path d="M132 0L83 0L85 36Z" fill="#abafb6" stroke="#abafb6"></path><path d="M0 94L0 95L87 84Z" fill="#abafb6" stroke="#abafb6"></path><path d="M767 68L726 79L729 93Z" fill="#001122" stroke="#001122"></path><path d="M729 93L726 79L625 83Z" fill="#e2e4e6" stroke="#e2e4e6"></path><path d="M0 94L87 84L85 36Z" fill="#182535" stroke="#182535"></path><path d="M0 0L0 94L85 36Z" fill="#2f3948" stroke="#2f3948"></path><path d="M808 224L765 143L755 196Z" fill="#5e6572" stroke="#5e6572"></path><path d="M799 513L783 446L745 476Z" fill="#c7c9ce" stroke="#c7c9ce"></path><path d="M745 476L783 446L740 428Z" fill="#e2e4e6" stroke="#e2e4e6"></path><path d="M726 79L673 0L625 83Z" fill="#c7c9ce" stroke="#c7c9ce"></path><path d="M0 577L29 600L79 555Z" fill="#abafb6" stroke="#abafb6"></path><path d="M741 0L685 0L726 79Z" fill="#464f5d" stroke="#464f5d"></path><path d="M726 79L685 0L673 0Z" fill="#ffffff" stroke="#ffffff"></path><path d="M820 282L808 224L787 268Z" fill="#464f5d" stroke="#464f5d"></path><path d="M787 268L808 224L742 231Z" fill="#464f5d" stroke="#464f5d"></path><path d="M0 481L0 577L79 555Z" fill="#e2e4e6" stroke="#e2e4e6"></path><path d="M857 352L820 282L763 382Z" fill="#182535" stroke="#182535"></path><path d="M634 600L732 600L701 531Z" fill="#182535" stroke="#182535"></path><path d="M701 531L799 513L745 476Z" fill="#c7c9ce" stroke="#c7c9ce"></path><path d="M0 577L0 600L29 600Z" fill="#e2e4e6" stroke="#e2e4e6"></path><path d="M831 125L767 68L765 143Z" fill="#5e6572" stroke="#5e6572"></path><path d="M765 143L767 68L729 93Z" fill="#5e6572" stroke="#5e6572"></path><path d="M755 600L799 513L701 531Z" fill="#182535" stroke="#182535"></path><path d="M783 446L841 389L763 382Z" fill="#5e6572" stroke="#5e6572"></path><path d="M847 483L841 389L783 446Z" fill="#91969f" stroke="#91969f"></path><path d="M755 600L803 516L799 513Z" fill="#001122" stroke="#001122"></path><path d="M799 513L847 483L783 446Z" fill="#5e6572" stroke="#5e6572"></path><path d="M732 600L755 600L701 531Z" fill="#5e6572" stroke="#5e6572"></path><path d="M83 0L0 0L85 36Z" fill="#c7c9ce" stroke="#c7c9ce"></path><path d="M767 68L741 0L726 79Z" fill="#5e6572" stroke="#5e6572"></path><path d="M900 323L857 352L900 350Z" fill="#e2e4e6" stroke="#e2e4e6"></path><path d="M841 389L857 352L763 382Z" fill="#182535" stroke="#182535"></path><path d="M850 153L765 143L808 224Z" fill="#91969f" stroke="#91969f"></path><path d="M850 153L831 125L765 143Z" fill="#c7c9ce" stroke="#c7c9ce"></path><path d="M850 153L808 224L900 164Z" fill="#2f3948" stroke="#2f3948"></path><path d="M767 68L835 0L741 0Z" fill="#464f5d" stroke="#464f5d"></path><path d="M803 516L847 483L799 513Z" fill="#2f3948" stroke="#2f3948"></path><path d="M900 558L847 483L803 516Z" fill="#91969f" stroke="#91969f"></path><path d="M900 257L808 224L820 282Z" fill="#e2e4e6" stroke="#e2e4e6"></path><path d="M900 350L857 352L900 410Z" fill="#182535" stroke="#182535"></path><path d="M857 352L900 323L820 282Z" fill="#c7c9ce" stroke="#c7c9ce"></path><path d="M900 410L857 352L841 389Z" fill="#e2e4e6" stroke="#e2e4e6"></path><path d="M900 323L900 257L820 282Z" fill="#c7c9ce" stroke="#c7c9ce"></path><path d="M847 483L900 410L841 389Z" fill="#abafb6" stroke="#abafb6"></path><path d="M900 149L861 76L831 125Z" fill="#182535" stroke="#182535"></path><path d="M831 125L861 76L767 68Z" fill="#2f3948" stroke="#2f3948"></path><path d="M900 149L831 125L850 153Z" fill="#2f3948" stroke="#2f3948"></path><path d="M900 257L900 164L808 224Z" fill="#001122" stroke="#001122"></path><path d="M755 600L846 600L803 516Z" fill="#182535" stroke="#182535"></path><path d="M847 483L900 480L900 410Z" fill="#abafb6" stroke="#abafb6"></path><path d="M900 558L900 480L847 483Z" fill="#e2e4e6" stroke="#e2e4e6"></path><path d="M900 164L900 149L850 153Z" fill="#e2e4e6" stroke="#e2e4e6"></path><path d="M900 60L835 0L861 76Z" fill="#182535" stroke="#182535"></path><path d="M861 76L835 0L767 68Z" fill="#e2e4e6" stroke="#e2e4e6"></path><path d="M846 600L900 558L803 516Z" fill="#777d88" stroke="#777d88"></path><path d="M900 149L900 60L861 76Z" fill="#5e6572" stroke="#5e6572"></path><path d="M846 600L900 600L900 558Z" fill="#182535" stroke="#182535"></path><path d="M900 60L900 0L835 0Z" fill="#ffffff" stroke="#ffffff"></path></g></svg>